<svg version="1.1" id="Layer_1" xmlns="http://www.w3.org/2000/svg" xmlns:xlink="http://www.w3.org/1999/xlink" x="0px" y="0px"
	 width="100%" viewBox="0 0 255 255" enable-background="new 0 0 255 255" xml:space="preserve">
<path fill="#010101" opacity="1.000000" stroke="none" 
	d="
M168.000000,256.000000 
	C112.000000,256.000000 56.500008,256.000000 1.000007,256.000000 
	C1.000005,171.000015 1.000005,86.000015 1.000003,1.000019 
	C85.999985,1.000013 170.999969,1.000013 255.999969,1.000006 
	C255.999969,85.999977 255.999969,170.999954 255.999985,255.999969 
	C226.833328,256.000000 197.666672,256.000000 168.000000,256.000000 
M177.045761,175.778687 
	C184.635361,172.505066 189.783401,166.437057 193.283920,159.450058 
	C200.330261,145.385574 206.624542,130.942184 213.125946,116.608353 
	C214.694946,113.149094 213.369324,110.368111 210.063248,108.766945 
	C206.516266,107.049095 203.773895,108.645500 202.175491,111.782333 
	C200.298538,115.465775 199.070145,119.475128 197.273331,123.204819 
	C191.956039,134.242020 186.736771,145.339401 180.953934,156.131821 
	C179.121536,159.551636 175.637695,162.086563 172.098877,165.900085 
	C170.261047,162.052963 168.587418,159.691772 167.993027,157.084534 
	C166.407959,150.131714 164.728149,143.122940 164.096741,136.046234 
	C162.736069,120.795876 162.373337,105.452919 160.865707,90.220764 
	C160.138306,82.871643 158.535278,75.382355 155.885544,68.513237 
	C153.159393,61.446056 145.293762,60.866928 140.723328,66.943161 
	C138.277054,70.195396 136.060379,74.019600 135.096909,77.920776 
	C130.161911,97.903259 125.731758,118.009773 120.990799,138.041138 
	C118.949341,146.666687 116.583580,155.215500 114.365150,163.799164 
	C112.764557,160.980255 112.188469,158.419708 111.985039,155.829895 
	C110.290520,134.257568 109.024460,112.643532 106.852966,91.120399 
	C105.893806,81.613594 103.403160,72.222427 101.085114,62.908852 
	C100.009026,58.585293 97.069771,55.143127 92.124344,54.593697 
	C86.883949,54.011490 83.608208,57.258801 81.326660,61.265152 
	C78.877380,65.566055 76.694664,70.103493 75.062202,74.770859 
	C65.538994,101.998680 60.364849,130.288010 54.996277,158.521423 
	C53.381237,167.014938 51.895302,175.532959 50.336754,184.037292 
	C49.488598,188.665314 51.101887,191.924606 54.702625,192.789673 
	C58.267246,193.646042 61.116596,191.340302 62.146793,186.748077 
	C62.437546,185.452011 62.689220,184.147141 62.956364,182.845825 
	C68.636200,155.178528 74.040794,127.450371 80.137810,99.875320 
	C82.405838,89.617706 86.294395,79.718399 89.443977,69.655708 
	C90.113701,69.738174 90.783424,69.820648 91.453140,69.903114 
	C92.629448,77.402481 94.253227,84.863846 94.894028,92.408691 
	C96.499947,111.316826 97.356621,130.291443 99.137360,149.180618 
	C99.942490,157.721100 101.984741,166.179474 103.954132,174.560333 
	C104.864082,178.432678 107.685745,181.382614 111.975594,181.825821 
	C116.312813,182.273911 119.362877,179.704514 121.221268,176.199402 
	C123.460274,171.976425 125.779587,167.594315 126.867699,162.997864 
	C131.495026,143.451157 135.582428,123.777336 140.074951,104.197655 
	C141.823578,96.576675 144.121170,89.081650 146.168716,81.529243 
	C146.631378,81.571281 147.094040,81.613319 147.556686,81.655365 
	C147.719666,82.548920 147.966293,83.436256 148.033279,84.336945 
	C149.366470,102.260452 150.122421,120.250778 152.214249,138.084595 
	C153.379959,148.022995 155.974365,157.986526 159.386383,167.409561 
	C162.266281,175.363007 168.492905,177.651672 177.045761,175.778687 
z"/>
<path fill="#F9F9F9" opacity="1.000000" stroke="none" 
	d="
M176.671555,175.892639 
	C168.492905,177.651672 162.266281,175.363007 159.386383,167.409561 
	C155.974365,157.986526 153.379959,148.022995 152.214249,138.084595 
	C150.122421,120.250778 149.366470,102.260452 148.033279,84.336945 
	C147.966293,83.436256 147.719666,82.548920 147.556686,81.655365 
	C147.094040,81.613319 146.631378,81.571281 146.168716,81.529243 
	C144.121170,89.081650 141.823578,96.576675 140.074951,104.197655 
	C135.582428,123.777336 131.495026,143.451157 126.867699,162.997864 
	C125.779587,167.594315 123.460274,171.976425 121.221268,176.199402 
	C119.362877,179.704514 116.312813,182.273911 111.975594,181.825821 
	C107.685745,181.382614 104.864082,178.432678 103.954132,174.560333 
	C101.984741,166.179474 99.942490,157.721100 99.137360,149.180618 
	C97.356621,130.291443 96.499947,111.316826 94.894028,92.408691 
	C94.253227,84.863846 92.629448,77.402481 91.453140,69.903114 
	C90.783424,69.820648 90.113701,69.738174 89.443977,69.655708 
	C86.294395,79.718399 82.405838,89.617706 80.137810,99.875320 
	C74.040794,127.450371 68.636200,155.178528 62.956364,182.845825 
	C62.689220,184.147141 62.437546,185.452011 62.146793,186.748077 
	C61.116596,191.340302 58.267246,193.646042 54.702625,192.789673 
	C51.101887,191.924606 49.488598,188.665314 50.336754,184.037292 
	C51.895302,175.532959 53.381237,167.014938 54.996277,158.521423 
	C60.364849,130.288010 65.538994,101.998680 75.062202,74.770859 
	C76.694664,70.103493 78.877380,65.566055 81.326660,61.265152 
	C83.608208,57.258801 86.883949,54.011490 92.124344,54.593697 
	C97.069771,55.143127 100.009026,58.585293 101.085114,62.908852 
	C103.403160,72.222427 105.893806,81.613594 106.852966,91.120399 
	C109.024460,112.643532 110.290520,134.257568 111.985039,155.829895 
	C112.188469,158.419708 112.764557,160.980255 114.365150,163.799164 
	C116.583580,155.215500 118.949341,146.666687 120.990799,138.041138 
	C125.731758,118.009773 130.161911,97.903259 135.096909,77.920776 
	C136.060379,74.019600 138.277054,70.195396 140.723328,66.943161 
	C145.293762,60.866928 153.159393,61.446056 155.885544,68.513237 
	C158.535278,75.382355 160.138306,82.871643 160.865707,90.220764 
	C162.373337,105.452919 162.736069,120.795876 164.096741,136.046234 
	C164.728149,143.122940 166.407959,150.131714 167.993027,157.084534 
	C168.587418,159.691772 170.261047,162.052963 172.098877,165.900085 
	C175.637695,162.086563 179.121536,159.551636 180.953934,156.131821 
	C186.736771,145.339401 191.956039,134.242020 197.273331,123.204819 
	C199.070145,119.475128 200.298538,115.465775 202.175491,111.782333 
	C203.773895,108.645500 206.516266,107.049095 210.063248,108.766945 
	C213.369324,110.368111 214.694946,113.149094 213.125946,116.608353 
	C206.624542,130.942184 200.330261,145.385574 193.283920,159.450058 
	C189.783401,166.437057 184.635361,172.505066 176.671555,175.892639 
z"/>
</svg>